<?xml version="1.0" encoding="utf-8"?>
<!-- Generator: Adobe Illustrator 24.3.0, SVG Export Plug-In . SVG Version: 6.00 Build 0)  -->
<svg version="1.1" id="Layer_1" xmlns="http://www.w3.org/2000/svg" xmlns:xlink="http://www.w3.org/1999/xlink" x="0px" y="0px"
	 viewBox="0 0 300 300" enable-background="new 0 0 300 300" xml:space="preserve">
<g>
	<g>
		<g>
			<polygon fill="#7FD3B9" points="150,179.591 117.719,238.772 182.281,238.772 			"/>
		</g>
		<g>
			<polygon fill="#BBEAD9" points="150,179.591 117.719,238.772 128.48,238.772 155.38,189.452 			"/>
		</g>
		<g>
			<polygon fill="#E5E5E4" points="155.869,190.351 164.674,206.491 279.123,206.491 279.123,190.351 			"/>
		</g>
		<g>
			<polygon fill="#E5E5E4" points="144.131,190.351 20.877,190.351 20.877,206.491 135.326,206.491 			"/>
		</g>
		<g>
			<path fill="#E5E5E4" d="M117.719,141.93c0,26.743-21.678,48.421-48.421,48.421s-48.421-21.678-48.421-48.421H117.719z"/>
		</g>
		<g>
			<path fill="#FFDA88" d="M39.86,141.93h58.877c9.954-8.391,16.293-20.932,16.293-34.971c0-25.256-20.475-45.731-45.731-45.731
				c-25.256,0-45.731,20.475-45.731,45.731C23.567,120.998,29.906,133.539,39.86,141.93z"/>
		</g>
		<g>
			<path fill="#FFE2A9" d="M34.328,106.959c0-23.433,17.635-42.72,40.351-45.389c-1.768-0.205-3.557-0.342-5.38-0.342
				c-25.256,0-45.731,20.475-45.731,45.731c0,14.039,6.339,26.58,16.293,34.971h10.76C40.667,133.539,34.328,120.998,34.328,106.959
				z"/>
		</g>
		<g>
			<path fill="#FFDA88" d="M201.263,141.93h58.877c9.954-8.391,16.293-20.932,16.293-34.971c0-25.256-20.475-45.731-45.731-45.731
				c-25.256,0-45.731,20.475-45.731,45.731C184.971,120.998,191.309,133.539,201.263,141.93z"/>
		</g>
		<g>
			<path fill="#7FD3B9" d="M84.351,110.506c-0.978-1.718-2.181-3.053-3.62-4.04c-1.44-0.967-3.568-2.06-6.381-3.247
				c-3.846-1.545-5.758-3.383-5.758-5.496c0-1.072,0.37-1.997,1.108-2.779c0.743-0.757,1.628-1.156,2.651-1.156
				c1.334,0,3.523,0.898,6.549,2.69l4.35-6.835c-1.855-2.69-5.653-4.035-8.572-4.13v-3.074c0-1.592-1.881-2.884-5.38-2.884
				s-5.38,1.292-5.38,2.884v3.536c0,0-1.245,0.599-3.425,2.863c-2.391,2.475-2.606,6.647-2.606,9.515
				c0,5.737,4.902,8.212,6.037,9.073c1.132,0.862,3.045,1.865,5.296,2.842c4.628,1.981,6.798,3.547,6.798,5.79
				c0,1.083-0.483,2.123-1.505,3.11c-1.027,0.993-2.081,1.409-3.192,1.492c-3.134,0.221-5.714-1.986-9.318-4.639l-5.343,6.788
				c3.302,3.904,7.258,5.674,7.258,5.753v2.89c0,1.597,2.327,2.885,5.38,2.885c2.869,0,5.38-1.287,5.38-2.885v-2.89
				c0-0.031,3.846-0.536,6.562-2.879c2.677-2.312,4.6-5.89,4.6-9.573C85.841,114.099,85.32,112.239,84.351,110.506z"/>
		</g>
		<g>
			<path fill="#E5E5E4" d="M279.123,141.93c0,26.743-21.678,48.421-48.421,48.421s-48.421-21.678-48.421-48.421H279.123z"/>
		</g>
		<g>
			<path fill="#7FD3B9" d="M245.755,110.506c-0.977-1.718-2.18-3.053-3.62-4.04c-1.44-0.967-3.568-2.06-6.381-3.247
				c-3.846-1.545-5.758-3.383-5.758-5.496c0-1.072,0.37-1.997,1.108-2.779c0.743-0.757,1.629-1.156,2.651-1.156
				c1.334,0,3.523,0.898,6.549,2.69l4.35-6.835c-1.855-2.69-5.654-4.035-8.572-4.13v-3.074c0-1.592-1.881-2.884-5.38-2.884
				s-5.38,1.292-5.38,2.884v3.536c0,0-1.245,0.599-3.426,2.863c-2.391,2.475-2.606,6.647-2.606,9.515
				c0,5.737,4.902,8.212,6.037,9.073c1.132,0.862,3.045,1.865,5.296,2.842c4.629,1.981,6.798,3.547,6.798,5.79
				c0,1.083-0.483,2.123-1.505,3.11c-1.027,0.993-2.081,1.409-3.191,1.492c-3.134,0.221-5.714-1.986-9.318-4.639l-5.343,6.788
				c3.302,3.904,7.258,5.674,7.258,5.753v2.89c0,1.597,2.327,2.885,5.38,2.885c2.869,0,5.38-1.287,5.38-2.885v-2.89
				c0-0.031,3.846-0.536,6.562-2.879c2.677-2.312,4.6-5.89,4.6-9.573C247.244,114.099,246.724,112.239,245.755,110.506z"/>
		</g>
		<g>
			<path fill="#FFE2A9" d="M195.731,106.959c0-23.433,17.635-42.72,40.351-45.389c-1.768-0.205-3.557-0.342-5.38-0.342
				c-25.256,0-45.731,20.475-45.731,45.731c0,14.039,6.339,26.58,16.293,34.971h10.76
				C202.07,133.539,195.731,120.998,195.731,106.959z"/>
		</g>
		<g>
			<path fill="#EFEFEF" d="M31.638,141.93h-10.76c0,26.743,21.678,48.421,48.421,48.421c1.821,0,3.612-0.121,5.38-0.315
				C50.471,187.356,31.638,166.855,31.638,141.93z"/>
		</g>
		<g>
			<path fill="#EFEFEF" d="M193.041,141.93h-10.76c0,26.743,21.678,48.421,48.421,48.421c1.821,0,3.612-0.121,5.38-0.315
				C211.874,187.356,193.041,166.855,193.041,141.93z"/>
		</g>
		<g>
			<rect x="20.877" y="190.351" fill="#EFEFEF" width="16.14" height="16.14"/>
		</g>
	</g>
	<g>
		<g>
			<path fill="#161616" d="M279.123,211.871H164.674c-1.968,0-3.78-1.077-4.723-2.806l-8.806-16.14
				c-0.909-1.666-0.872-3.688,0.097-5.322c0.969-1.629,2.727-2.632,4.626-2.632h123.254c2.971,0,5.38,2.406,5.38,5.38v16.14
				C284.503,209.465,282.094,211.871,279.123,211.871z M167.869,201.111h105.874v-5.38H164.932L167.869,201.111z"/>
		</g>
		<g>
			<path fill="#161616" d="M135.326,211.871H20.877c-2.971,0-5.38-2.406-5.38-5.38v-16.14c0-2.974,2.409-5.38,5.38-5.38h123.254
				c1.899,0,3.657,1.003,4.626,2.632c0.969,1.634,1.006,3.657,0.097,5.322l-8.806,16.14
				C139.106,210.794,137.293,211.871,135.326,211.871z M26.257,201.111h105.874l2.937-5.38H26.257V201.111z"/>
		</g>
		<g>
			<path fill="#161616" d="M69.298,195.731c-29.667,0-53.801-24.137-53.801-53.801c0-2.974,2.409-5.38,5.38-5.38h96.842
				c2.971,0,5.38,2.406,5.38,5.38C123.1,171.594,98.965,195.731,69.298,195.731z M26.591,147.31
				c2.659,21.2,20.798,37.661,42.707,37.661s40.049-16.461,42.707-37.661H26.591z"/>
		</g>
		<g>
			<path fill="#161616" d="M260.14,147.31h-58.876c-1.269,0-2.498-0.447-3.468-1.266c-11.569-9.751-18.205-24-18.205-39.085
				c0-28.182,22.928-51.111,51.111-51.111c28.183,0,51.111,22.929,51.111,51.111c0,15.084-6.636,29.333-18.205,39.085
				C262.638,146.863,261.409,147.31,260.14,147.31z M203.297,136.55h54.81c8.249-7.645,12.946-18.321,12.946-29.591
				c0-22.251-18.1-40.351-40.351-40.351c-22.251,0-40.351,18.1-40.351,40.351C190.351,118.229,195.048,128.905,203.297,136.55z"/>
		</g>
		<g>
			<path fill="#161616" d="M84.351,110.506c-0.978-1.718-2.181-3.053-3.62-4.04c-1.44-0.967-3.568-2.06-6.381-3.247
				c-3.846-1.545-5.758-3.383-5.758-5.496c0-1.072,0.37-1.997,1.108-2.779c0.743-0.757,1.628-1.156,2.651-1.156
				c1.334,0,3.523,0.898,6.549,2.69l4.35-6.835c-1.855-2.69-5.653-4.035-8.572-4.13v-3.074c0-1.592-1.881-2.884-5.38-2.884
				s-5.38,1.292-5.38,2.884v3.536c0,0-1.245,0.599-3.425,2.863c-2.391,2.475-2.606,6.647-2.606,9.515
				c0,5.737,4.902,8.212,6.037,9.073c1.132,0.862,3.045,1.865,5.296,2.842c4.628,1.981,6.798,3.547,6.798,5.79
				c0,1.083-0.483,2.123-1.505,3.11c-1.027,0.993-2.081,1.409-3.192,1.492c-3.134,0.221-5.714-1.986-9.318-4.639l-5.343,6.788
				c3.302,3.904,7.258,5.674,7.258,5.753v2.89c0,1.597,2.327,2.885,5.38,2.885c2.869,0,5.38-1.287,5.38-2.885v-2.89
				c0-0.031,3.846-0.536,6.562-2.879c2.677-2.312,4.6-5.89,4.6-9.573C85.841,114.099,85.32,112.239,84.351,110.506z"/>
		</g>
		<g>
			<path fill="#161616" d="M230.702,195.731c-29.667,0-53.801-24.137-53.801-53.801c0-2.974,2.409-5.38,5.38-5.38h96.842
				c2.971,0,5.38,2.406,5.38,5.38C284.503,171.594,260.368,195.731,230.702,195.731z M187.994,147.31
				c2.658,21.2,20.798,37.661,42.707,37.661c21.909,0,40.049-16.461,42.707-37.661H187.994z"/>
		</g>
		<g>
			<path fill="#161616" d="M245.755,110.506c-0.977-1.718-2.18-3.053-3.62-4.04c-1.44-0.967-3.568-2.06-6.381-3.247
				c-3.846-1.545-5.758-3.383-5.758-5.496c0-1.072,0.37-1.997,1.108-2.779c0.743-0.757,1.629-1.156,2.651-1.156
				c1.334,0,3.523,0.898,6.549,2.69l4.35-6.835c-1.855-2.69-5.654-4.035-8.572-4.13v-3.074c0-1.592-1.881-2.884-5.38-2.884
				s-5.38,1.292-5.38,2.884v3.536c0,0-1.245,0.599-3.426,2.863c-2.391,2.475-2.606,6.647-2.606,9.515
				c0,5.737,4.902,8.212,6.037,9.073c1.132,0.862,3.045,1.865,5.296,2.842c4.629,1.981,6.798,3.547,6.798,5.79
				c0,1.083-0.483,2.123-1.505,3.11c-1.027,0.993-2.081,1.409-3.191,1.492c-3.134,0.221-5.714-1.986-9.318-4.639l-5.343,6.788
				c3.302,3.904,7.258,5.674,7.258,5.753v2.89c0,1.597,2.327,2.885,5.38,2.885c2.869,0,5.38-1.287,5.38-2.885v-2.89
				c0-0.031,3.846-0.536,6.562-2.879c2.677-2.312,4.6-5.89,4.6-9.573C247.244,114.099,246.724,112.239,245.755,110.506z"/>
		</g>
		<g>
			<path fill="#161616" d="M98.737,147.31H39.86c-1.269,0-2.498-0.447-3.468-1.266c-11.569-9.751-18.205-24-18.205-39.085
				c0-10.188,2.995-20.028,8.659-28.461c1.655-2.464,5.002-3.126,7.466-1.466c2.467,1.655,3.123,5.002,1.466,7.466
				c-4.469,6.652-6.83,14.417-6.83,22.461c0,11.27,4.697,21.946,12.946,29.591h54.81c8.249-7.645,12.946-18.321,12.946-29.591
				c0-22.251-18.1-40.351-40.351-40.351c-6.812,0-13.555,1.744-19.506,5.039c-2.596,1.45-5.871,0.504-7.314-2.102
				c-1.44-2.601-0.499-5.874,2.102-7.314c7.54-4.177,16.088-6.384,24.718-6.384c28.183,0,51.111,22.929,51.111,51.111
				c0,15.084-6.636,29.333-18.205,39.085C101.235,146.863,100.006,147.31,98.737,147.31z"/>
		</g>
		<g>
			<path fill="#161616" d="M182.281,244.152H160.76c-2.971,0-5.38-2.406-5.38-5.38c0-2.974,2.409-5.38,5.38-5.38h12.457L150,190.824
				l-23.217,42.568h12.457c2.971,0,5.38,2.406,5.38,5.38c0,2.974-2.409,5.38-5.38,5.38h-21.52c-1.899,0-3.657-1.003-4.626-2.632
				c-0.969-1.634-1.006-3.657-0.097-5.322l32.281-59.181c1.886-3.457,7.561-3.457,9.447,0l32.281,59.181
				c0.909,1.665,0.872,3.688-0.097,5.322C185.938,243.148,184.18,244.152,182.281,244.152z"/>
		</g>
	</g>
</g>
</svg>
