<svg xmlns="http://www.w3.org/2000/svg" width="128" height="128" viewBox="0 0 128 128">
  <title>GARLAND</title>
  <g>
    <path d="M61.871,37.607h4.258a2,2,0,0,1,2,2V45.38a0,0,0,0,1,0,0H59.871a0,0,0,0,1,0,0V39.607A2,2,0,0,1,61.871,37.607Z" fill="#fee97d"/>
    <path d="M68.129,45.38c3.11,6.81.689,11.562-1.545,14.156a3.431,3.431,0,0,1-5.168,0c-2.234-2.594-4.655-7.346-1.545-14.156Z" fill="#97da7b"/>
    <path d="M81.871,36.569h4.258a2,2,0,0,1,2,2v5.773a0,0,0,0,1,0,0H79.871a0,0,0,0,1,0,0V38.569A2,2,0,0,1,81.871,36.569Z" fill="#fee97d"/>
    <path d="M88.129,44.342c3.11,6.81.689,11.562-1.545,14.156a3.431,3.431,0,0,1-5.168,0c-2.234-2.594-4.655-7.346-1.545-14.156Z" fill="#f07281"/>
    <path d="M101.871,32.967h4.258a2,2,0,0,1,2,2v5.773a0,0,0,0,1,0,0H99.871a0,0,0,0,1,0,0V34.967A2,2,0,0,1,101.871,32.967Z" fill="#fee97d"/>
    <path d="M108.129,40.741c3.11,6.81.689,11.561-1.545,14.155a3.431,3.431,0,0,1-5.168,0c-2.234-2.594-4.655-7.345-1.545-14.155Z" fill="#97da7b"/>
    <path d="M39.871,36.569h8.258a0,0,0,0,1,0,0v5.773a2,2,0,0,1-2,2H41.871a2,2,0,0,1-2-2V36.569A0,0,0,0,1,39.871,36.569Z" transform="translate(88 80.911) rotate(180)" fill="#fee97d"/>
    <path d="M39.871,44.342c-3.11,6.81-.689,11.562,1.545,14.156a3.431,3.431,0,0,0,5.168,0c2.234-2.594,4.655-7.346,1.545-14.156Z" fill="#f07281"/>
    <path d="M19.871,32.967h8.258a0,0,0,0,1,0,0v5.773a2,2,0,0,1-2,2H21.871a2,2,0,0,1-2-2V32.967A0,0,0,0,1,19.871,32.967Z" transform="translate(48 73.708) rotate(180)" fill="#fee97d"/>
    <path d="M19.871,40.741c-3.11,6.81-.689,11.561,1.545,14.155a3.431,3.431,0,0,0,5.168,0c2.234-2.594,4.655-7.345,1.545-14.155Z" fill="#97da7b"/>
    <path d="M61.871,84.607h4.258a2,2,0,0,1,2,2V92.38a0,0,0,0,1,0,0H59.871a0,0,0,0,1,0,0V86.607A2,2,0,0,1,61.871,84.607Z" fill="#fee97d"/>
    <path d="M68.129,92.38c3.11,6.81.689,11.562-1.545,14.156a3.431,3.431,0,0,1-5.168,0c-2.234-2.594-4.655-7.346-1.545-14.156Z" fill="#ffb65f"/>
    <path d="M81.871,83.569h4.258a2,2,0,0,1,2,2v5.773a0,0,0,0,1,0,0H79.871a0,0,0,0,1,0,0V85.569A2,2,0,0,1,81.871,83.569Z" fill="#fee97d"/>
    <path d="M88.129,91.342c3.11,6.81.689,11.562-1.545,14.156a3.431,3.431,0,0,1-5.168,0c-2.234-2.594-4.655-7.346-1.545-14.156Z" fill="#8ac9fe"/>
    <path d="M101.871,79.967h4.258a2,2,0,0,1,2,2v5.773a0,0,0,0,1,0,0H99.871a0,0,0,0,1,0,0V81.967A2,2,0,0,1,101.871,79.967Z" fill="#fee97d"/>
    <path d="M108.129,87.741c3.11,6.81.689,11.561-1.545,14.155a3.431,3.431,0,0,1-5.168,0c-2.234-2.594-4.655-7.345-1.545-14.155Z" fill="#ffb65f"/>
    <path d="M39.871,83.569h8.258a0,0,0,0,1,0,0v5.773a2,2,0,0,1-2,2H41.871a2,2,0,0,1-2-2V83.569A0,0,0,0,1,39.871,83.569Z" transform="translate(88 174.911) rotate(180)" fill="#fee97d"/>
    <path d="M39.871,91.342c-3.11,6.81-.689,11.562,1.545,14.156a3.431,3.431,0,0,0,5.168,0c2.234-2.594,4.655-7.346,1.545-14.156Z" fill="#8ac9fe"/>
    <path d="M19.871,79.967h8.258a0,0,0,0,1,0,0v5.773a2,2,0,0,1-2,2H21.871a2,2,0,0,1-2-2V79.967A0,0,0,0,1,19.871,79.967Z" transform="translate(48 167.708) rotate(180)" fill="#fee97d"/>
    <path d="M19.871,87.741c-3.11,6.81-.689,11.561,1.545,14.155a3.431,3.431,0,0,0,5.168,0c2.234-2.594,4.655-7.345,1.545-14.155Z" fill="#ffb65f"/>
    <g>
      <path d="M41.871,34.819a3.755,3.755,0,0,0-3.75,3.75V44C34.784,51.707,37.9,57.1,40.09,59.64a5.182,5.182,0,0,0,7.82,0C50.1,57.1,53.216,51.707,49.879,44v-5.43a3.755,3.755,0,0,0-3.75-3.75H45.75V30.707a1.75,1.75,0,0,0-1.561-1.74q-2.28-.247-4.413-.543a1.75,1.75,0,0,0-.477,3.467q1.443.2,2.951.378v2.55Zm3.387,22.536a1.735,1.735,0,0,1-2.516,0c-1.932-2.242-3.716-5.974-1.706-11.263h5.927C48.974,51.381,47.19,55.113,45.258,57.355Zm1.121-18.786v4.023H41.621V38.569a.251.251,0,0,1,.25-.25h4.258A.251.251,0,0,1,46.379,38.569Z"/>
      <path d="M120.745,65.819c-.043.028-4.455,2.824-13.61,5.584C98.676,73.954,84.325,77,64,77,25.158,77,7.466,65.954,7.256,65.82a1.75,1.75,0,0,0-1.9,2.94c.4.258,5.773,3.641,16.894,6.709v2.748h-.379a3.754,3.754,0,0,0-3.75,3.75V87.4c-3.337,7.706-.222,13.1,1.969,15.64a5.181,5.181,0,0,0,7.82,0c2.191-2.545,5.306-7.934,1.969-15.64V81.967a3.754,3.754,0,0,0-3.75-3.75H25.75V76.376a139.692,139.692,0,0,0,16.5,2.9v2.546h-.379a3.755,3.755,0,0,0-3.75,3.75V91c-3.337,7.708-.222,13.1,1.969,15.641a5.182,5.182,0,0,0,7.82,0C50.1,104.1,53.216,98.707,49.879,91v-5.43a3.755,3.755,0,0,0-3.75-3.75H45.75V79.647c5,.481,10.492.782,16.5.832v2.378h-.379a3.755,3.755,0,0,0-3.75,3.75v5.43c-3.337,7.708-.222,13.1,1.969,15.641a5.182,5.182,0,0,0,7.82,0c2.191-2.544,5.306-7.933,1.969-15.641v-5.43a3.755,3.755,0,0,0-3.75-3.75H65.75V80.479c6.008-.05,11.5-.351,16.5-.832v2.172h-.379a3.755,3.755,0,0,0-3.75,3.75V91c-3.337,7.709-.222,13.1,1.969,15.64a5.182,5.182,0,0,0,7.82,0c.26-.3.522-.63.779-.984a1.75,1.75,0,1,0-2.828-2.061c-.2.273-.4.527-.6.761a1.736,1.736,0,0,1-2.516,0c-1.932-2.242-3.716-5.974-1.706-11.263h5.926a13.553,13.553,0,0,1,.828,3.3,1.75,1.75,0,0,0,1.737,1.556,1.884,1.884,0,0,0,.2-.01A1.75,1.75,0,0,0,91.269,96a17.574,17.574,0,0,0-1.39-5V85.569a3.755,3.755,0,0,0-3.75-3.75H85.75V79.273a139.692,139.692,0,0,0,16.5-2.9v1.841h-.379a3.755,3.755,0,0,0-3.75,3.75V87.4c-3.337,7.707-.222,13.1,1.969,15.64a5.181,5.181,0,0,0,7.82,0c2.191-2.544,5.306-7.933,1.969-15.64V81.967a3.755,3.755,0,0,0-3.75-3.75h-.379V75.469c11.121-3.068,16.5-6.451,16.894-6.709a1.75,1.75,0,0,0-1.9-2.941ZM25.258,100.754a1.735,1.735,0,0,1-2.516,0c-1.932-2.243-3.715-5.975-1.705-11.263h5.926C28.973,94.779,27.19,98.511,25.258,100.754Zm1.121-18.787v4.024H21.621V81.967a.251.251,0,0,1,.25-.25h4.258A.251.251,0,0,1,26.379,81.967Zm18.879,22.388a1.735,1.735,0,0,1-2.516,0c-1.932-2.242-3.716-5.974-1.706-11.263h5.927C48.974,98.381,47.19,102.113,45.258,104.355Zm1.121-18.786v4.023H41.621V85.569a.251.251,0,0,1,.25-.25h4.258A.251.251,0,0,1,46.379,85.569Zm18.879,19.825a1.737,1.737,0,0,1-2.516,0c-1.932-2.243-3.716-5.975-1.706-11.264h5.928C68.974,99.419,67.19,103.151,65.258,105.394Zm1.121-18.787V90.63H61.621V86.607a.251.251,0,0,1,.25-.25h4.258A.251.251,0,0,1,66.379,86.607Zm20-1.038v4.023H81.621V85.569a.251.251,0,0,1,.25-.25h4.258A.251.251,0,0,1,86.379,85.569Zm18.879,15.185a1.736,1.736,0,0,1-2.516,0c-1.932-2.243-3.715-5.975-1.7-11.263h5.926C108.973,94.779,107.19,98.511,105.258,100.754Zm1.121-18.787v4.024h-4.758V81.967a.251.251,0,0,1,.25-.25h4.258A.251.251,0,0,1,106.379,81.967Z"/>
      <path d="M53.446,33.22c2.867.152,5.826.227,8.8.252v2.385h-.379a3.755,3.755,0,0,0-3.75,3.75v5.43c-3.337,7.708-.222,13.1,1.969,15.641a5.182,5.182,0,0,0,7.82,0c2.191-2.544,5.306-7.933,1.969-15.641v-5.43a3.755,3.755,0,0,0-3.75-3.75H65.75V33.479c6.008-.05,11.5-.351,16.5-.832v2.172h-.379a3.755,3.755,0,0,0-3.75,3.75V44c-3.337,7.709-.222,13.1,1.969,15.64a5.182,5.182,0,0,0,7.82,0C90.1,57.1,93.216,51.708,89.879,44v-5.43a3.755,3.755,0,0,0-3.75-3.75H85.75V32.273a139.692,139.692,0,0,0,16.5-2.9v1.841h-.379a3.755,3.755,0,0,0-3.75,3.75V40.4c-3.337,7.707-.222,13.1,1.969,15.64a5.181,5.181,0,0,0,7.82,0c2.191-2.544,5.306-7.933,1.969-15.64V34.967a3.755,3.755,0,0,0-3.75-3.75h-.379V28.469c11.121-3.068,16.5-6.451,16.894-6.709a1.75,1.75,0,1,0-1.9-2.939C120.57,18.933,103.021,30,64,30c-3.512,0-7-.091-10.368-.27a1.75,1.75,0,1,0-.186,3.495ZM65.258,58.394a1.737,1.737,0,0,1-2.516,0c-1.932-2.243-3.716-5.975-1.706-11.264h5.928C68.974,52.419,67.19,56.151,65.258,58.394Zm1.121-18.787V43.63H61.621V39.607a.251.251,0,0,1,.25-.25h4.258A.251.251,0,0,1,66.379,39.607ZM85.258,57.356a1.736,1.736,0,0,1-2.516,0c-1.932-2.242-3.716-5.974-1.706-11.263h5.928C88.974,51.381,87.19,55.113,85.258,57.356Zm1.121-18.787v4.023H81.621V38.569a.251.251,0,0,1,.25-.25h4.258A.251.251,0,0,1,86.379,38.569Zm18.879,15.185a1.736,1.736,0,0,1-2.516,0c-1.932-2.243-3.715-5.975-1.7-11.263h5.926C108.973,47.779,107.19,51.511,105.258,53.754Zm1.121-18.787v4.024h-4.758V34.967a.251.251,0,0,1,.25-.25h4.258A.251.251,0,0,1,106.379,34.967Z"/>
      <path d="M5.356,21.76c.267.172,5.636,3.575,16.894,6.681v2.776h-.379a3.754,3.754,0,0,0-3.75,3.75V40.4c-3.337,7.706-.222,13.1,1.969,15.64a5.181,5.181,0,0,0,7.82,0C30.1,53.493,33.216,48.1,29.879,40.4V34.967a3.754,3.754,0,0,0-3.75-3.75H25.75V29.344c1.368.332,2.783.659,4.3.97a1.8,1.8,0,0,0,.355.036,1.75,1.75,0,0,0,.35-3.465c-15.834-3.256-23.362-7.98-23.5-8.065a1.75,1.75,0,0,0-1.9,2.94Zm19.9,31.994a1.735,1.735,0,0,1-2.516,0c-1.932-2.243-3.715-5.975-1.705-11.263h5.926C28.973,47.779,27.19,51.511,25.258,53.754Zm1.121-18.787v4.024H21.621V34.967a.251.251,0,0,1,.25-.25h4.258A.251.251,0,0,1,26.379,34.967Z"/>
    </g>
  </g>
</svg>
