<?xml version="1.0" encoding="iso-8859-1"?>
<!-- Generator: Adobe Illustrator 19.0.0, SVG Export Plug-In . SVG Version: 6.00 Build 0)  -->
<svg xmlns="http://www.w3.org/2000/svg" xmlns:xlink="http://www.w3.org/1999/xlink" version="1.1" id="Capa_1" x="0px" y="0px" viewBox="0 0 512 512" style="enable-background:new 0 0 512 512;" xml:space="preserve">
<path style="fill:#F5C350;" d="M398.593,459.051H113.406c-32.038,0-54.475-31.648-43.867-61.88l53.221-151.68  c6.536-18.628,24.125-31.096,43.867-31.096h178.746c19.741,0,37.33,12.468,43.867,31.096l53.221,151.68  C453.068,427.402,430.633,459.051,398.593,459.051z"/>
<g>
	<path style="fill:#E5B045;" d="M398.596,459.05H113.403c-32.039,0-54.467-31.65-43.865-61.876l0.167-0.467   c6.386,17.443,23.05,30.593,43.699,30.593h285.194c20.647,0,37.312-13.149,43.699-30.593l0.167,0.467   C453.064,427.4,430.636,459.05,398.596,459.05z"/>
	<circle style="fill:#E5B045;" cx="256.003" cy="336.724" r="114.581"/>
</g>
<path style="fill:#F5C350;" d="M366.559,192.174c-9.798,0-17.348-8.763-15.763-18.431c7.103-43.322,38.764-75.988,76.747-75.988  s69.644,32.665,76.747,75.988c1.585,9.668-5.966,18.431-15.763,18.431H366.559z"/>
<path style="fill:#E5B045;" d="M473.989,116.196c-12.026,11.636-28.401,18.789-46.446,18.789c-18.044,0-34.419-7.153-46.446-18.789  c12.983-11.592,29.058-18.445,46.446-18.445C444.932,97.752,461.007,104.604,473.989,116.196z"/>
<path style="fill:#F5C350;" d="M145.441,192.178H23.47c-9.79,0-17.343-8.766-15.764-18.434  c3.849-23.484,14.918-43.832,30.303-57.549C50.991,104.603,67.066,97.75,84.455,97.75s33.463,6.853,46.446,18.445  c15.385,13.717,26.454,34.064,30.303,57.549C162.786,183.412,155.242,192.178,145.441,192.178z"/>
<path style="fill:#E5B045;" d="M130.902,116.196c-12.026,11.636-28.401,18.789-46.446,18.789s-34.42-7.153-46.446-18.789  c12.982-11.592,29.057-18.445,46.446-18.445C101.844,97.752,117.919,104.604,130.902,116.196z"/>
<path style="fill:#76C1B3;" d="M319.768,99.194H192.231c-17.02,0-30.817-13.797-30.817-30.817v-9.231  c0-17.02,13.797-30.817,30.817-30.817h127.537c17.02,0,30.817,13.797,30.817,30.817v9.231  C350.585,85.397,336.788,99.194,319.768,99.194z"/>
<path style="fill:#52A397;" d="M350.582,59.148v9.233c0,17.021-13.794,30.815-30.815,30.815H192.233  c-17.021,0-30.815-13.794-30.815-30.815v-9.233c0-3.037,0.434-5.963,1.268-8.733c3.749,12.771,15.563,22.082,29.547,22.082h127.535  c13.984,0,25.798-9.311,29.547-22.082C350.149,53.185,350.582,56.111,350.582,59.148z"/>
<g>
	<circle style="fill:#F5C350;" cx="427.545" cy="68.151" r="41.38"/>
	<circle style="fill:#F5C350;" cx="84.461" cy="68.151" r="41.38"/>
	<rect x="200.372" y="134.991" style="fill:#F5C350;" width="111.251" height="47.659"/>
</g>
<rect x="200.372" y="158.812" style="fill:#E5B045;" width="111.251" height="23.829"/>
<circle style="fill:#76C1B3;" cx="256.003" cy="336.724" r="89.551"/>
<g>
	<circle style="fill:#F1E9C5;" cx="256.003" cy="282.593" r="12.06"/>
	<circle style="fill:#F1E9C5;" cx="256.003" cy="390.854" r="12.06"/>
	<circle style="fill:#F1E9C5;" cx="310.133" cy="336.724" r="12.06"/>
	<circle style="fill:#F1E9C5;" cx="201.872" cy="336.724" r="12.06"/>
	<circle style="fill:#F1E9C5;" cx="294.273" cy="298.443" r="12.06"/>
	<circle style="fill:#F1E9C5;" cx="217.722" cy="375.004" r="12.06"/>
	<circle style="fill:#F1E9C5;" cx="294.273" cy="375.004" r="12.06"/>
	<circle style="fill:#F1E9C5;" cx="217.722" cy="298.443" r="12.06"/>
</g>
<g>
	<rect x="128.361" y="459.055" style="fill:#76C1B3;" width="35.573" height="26.19"/>
	<rect x="348.074" y="459.055" style="fill:#76C1B3;" width="35.573" height="26.19"/>
</g>
<path d="M511.694,172.536c-4.057-24.752-15.673-46.749-32.704-61.931c-4.559-4.073-9.425-7.56-14.538-10.458  c7.451-8.582,11.976-19.769,11.976-32c0-26.955-21.93-48.885-48.886-48.885c-22.855,0-42.09,15.768-47.416,36.995h-22.163  c-1.483-19.783-18.041-35.428-38.196-35.428H192.231c-20.155,0-36.713,15.646-38.196,35.428h-22.162  c-5.325-21.227-24.56-36.995-47.416-36.995c-4.143,0-7.5,3.358-7.5,7.5s3.357,7.5,7.5,7.5c18.684,0,33.884,15.2,33.884,33.884  s-15.2,33.885-33.884,33.885c-18.685,0-33.885-15.201-33.885-33.885c0-9.738,4.198-19.015,11.517-25.454  c3.11-2.736,3.414-7.475,0.678-10.585c-2.736-3.11-7.475-3.414-10.585-0.678c-10.556,9.286-16.609,22.668-16.609,36.716  c0,12.238,4.531,23.431,11.99,32.016C25.076,112.976,7.874,137.331,1.5,166.296c-0.47,2.148-0.872,4.248-1.194,6.233  c-1.104,6.751,0.813,13.623,5.257,18.852c4.476,5.267,11.006,8.287,17.915,8.287h35.901v39.155  c0,21.618,17.587,39.205,39.205,39.205h4.809L62.462,394.688c-5.871,16.734-3.356,34.629,6.899,49.098  c10.255,14.468,26.309,22.765,44.044,22.765h7.451v18.687c0,4.142,3.357,7.5,7.5,7.5h35.573c4.143,0,7.5-3.358,7.5-7.5V466.55  h169.139v18.687c0,4.142,3.357,7.5,7.5,7.5h35.573c4.143,0,7.5-3.358,7.5-7.5V466.55h7.451c17.734,0,33.787-8.297,44.044-22.765  c10.256-14.468,12.771-32.363,6.899-49.098l-34.64-98.726c-1.371-3.909-5.65-5.967-9.561-4.594c-3.908,1.372-5.965,5.652-4.594,9.56  l34.64,98.726c4.24,12.085,2.425,25.008-4.982,35.457c-7.406,10.448-18.999,16.44-31.806,16.44h-14.941c-0.003,0-0.006,0-0.01,0  h-35.573c-0.003,0-0.006,0-0.01,0H163.94c-0.003,0-0.006,0-0.01,0h-35.573c-0.003,0-0.006,0-0.01,0h-14.941  c-12.807,0-24.399-5.992-31.806-16.44c-7.407-10.448-9.223-23.372-4.982-35.457l53.221-151.68  c5.473-15.599,20.258-26.08,36.789-26.08h178.746c16.531,0,31.316,10.48,36.789,26.079l8.785,25.039  c1.371,3.908,5.651,5.964,9.561,4.594c3.908-1.372,5.965-5.652,4.594-9.56l-8.785-25.039c-7.579-21.6-28.052-36.113-50.944-36.113  H303.55v-16.749h8.074c4.143,0,7.5-3.358,7.5-7.5v-47.659c0-4.142-3.357-7.5-7.5-7.5h-8.074v-20.792h16.219  c20.158,0,36.718-15.65,38.197-35.436h20.802c0.696,11.013,5.054,21.042,11.868,28.891c-5.105,2.895-9.968,6.38-14.524,10.45  c-17.044,15.184-28.664,37.18-32.722,61.94c-1.104,6.749,0.813,13.619,5.258,18.851c4.477,5.269,11.006,8.29,17.913,8.29h121.972  c6.902,0,13.428-3.021,17.903-8.288C510.882,186.16,512.799,179.288,511.694,172.536z M156.431,477.738h-20.573V466.55h20.573  V477.738z M376.143,477.738H355.57V466.55h20.573V477.738z M427.543,34.262c18.685,0,33.885,15.2,33.885,33.884  s-15.2,33.885-33.885,33.885c-18.684,0-33.884-15.201-33.884-33.885S408.858,34.262,427.543,34.262z M60.176,110.548  c7.16,4.116,15.446,6.483,24.28,6.483s17.121-2.368,24.28-6.484c19.173,8.606,34.234,26.853,41.572,49.851H18.626  C26.013,137.492,41.269,119.083,60.176,110.548z M16.992,181.668c-1.511-1.779-2.182-3.988-1.933-6.269h138.788  c0.254,2.277-0.413,4.488-1.925,6.269c-1.619,1.907-3.982,3.001-6.483,3.001H23.477C20.976,184.669,18.613,183.575,16.992,181.668z   M115.683,243.008l-7.025,20.022H98.585c-13.347,0-24.205-10.858-24.205-24.205v-39.155h71.06c6.913,0,13.443-3.023,17.918-8.293  c4.441-5.231,6.353-12.103,5.243-18.849c-5.23-31.923-22.917-58.65-47.229-72.387c6.81-7.847,11.165-17.873,11.86-28.882h20.802  c1.479,19.786,18.039,35.436,38.197,35.436h16.219v20.792h-8.074c-4.143,0-7.5,3.358-7.5,7.5v47.659c0,4.142,3.357,7.5,7.5,7.5  h8.074v16.749h-41.824C143.734,206.894,123.262,221.406,115.683,243.008z M288.549,206.894H223.45v-16.749h65.099V206.894z   M304.123,175.145h-96.247v-32.658h96.247V175.145z M288.549,127.485H223.45v-20.792h65.099V127.485z M319.768,91.694h-16.219  v-5.047c0-4.142-3.357-7.5-7.5-7.5c-4.143,0-7.5,3.358-7.5,7.5v5.047H223.45v-5.047c0-4.142-3.357-7.5-7.5-7.5  c-4.143,0-7.5,3.358-7.5,7.5v5.047h-16.219c-12.856,0-23.316-10.459-23.316-23.316v-4.542c0-0.026,0.004-0.051,0.004-0.077  c0-0.026-0.004-0.051-0.004-0.077v-4.534c0-12.857,10.46-23.316,23.316-23.316h16.219v9.981c0,4.142,3.357,7.5,7.5,7.5  c4.143,0,7.5-3.358,7.5-7.5v-9.981H248.5v9.981c0,4.142,3.357,7.5,7.5,7.5s7.5-3.358,7.5-7.5v-9.981h25.049v9.981  c0,4.142,3.357,7.5,7.5,7.5c4.143,0,7.5-3.358,7.5-7.5v-9.981h16.219c12.856,0,23.316,10.459,23.316,23.316v4.534  c0,0.026-0.004,0.051-0.004,0.077c0,0.026,0.004,0.051,0.004,0.077v4.542C343.085,81.234,332.625,91.694,319.768,91.694z   M386.097,121.792c5.298-4.732,11.058-8.498,17.156-11.249c7.161,4.119,15.451,6.488,24.289,6.488c8.839,0,17.129-2.37,24.291-6.49  c6.107,2.755,11.869,6.522,17.168,11.255c11.088,9.884,19.48,23.277,24.382,38.601H361.699  C366.603,145.072,374.999,131.678,386.097,121.792z M495.006,181.679c-1.621,1.907-3.979,3-6.473,3H366.561  c-2.498,0-4.861-1.095-6.483-3.003c-1.516-1.785-2.186-4-1.933-6.277H496.94C497.192,177.679,496.522,179.894,495.006,181.679z"/>
<path d="M256,239.669c-53.516,0-97.054,43.539-97.054,97.054s43.539,97.054,97.054,97.054s97.054-43.539,97.054-97.054  S309.515,239.669,256,239.669z M256,418.777c-45.245,0-82.054-36.809-82.054-82.054s36.809-82.054,82.054-82.054  s82.054,36.809,82.054,82.054S301.244,418.777,256,418.777z"/>
<path d="M256,302.15c10.785,0,19.56-8.774,19.56-19.56s-8.774-19.56-19.56-19.56c-10.785,0-19.56,8.774-19.56,19.56  C236.439,293.375,245.215,302.15,256,302.15z M256,278.03c2.514,0,4.56,2.045,4.56,4.56c0,2.514-2.046,4.56-4.56,4.56  s-4.56-2.045-4.56-4.56C251.44,280.075,253.486,278.03,256,278.03z"/>
<path d="M256,371.295c-10.785,0-19.56,8.774-19.56,19.56s8.774,19.56,19.56,19.56c10.785,0,19.56-8.774,19.56-19.56  C275.56,380.069,266.785,371.295,256,371.295z M256,395.415c-2.514,0-4.56-2.045-4.56-4.56c0-2.514,2.046-4.56,4.56-4.56  s4.56,2.045,4.56,4.56S258.514,395.415,256,395.415z"/>
<path d="M290.572,336.723c0,10.785,8.774,19.56,19.56,19.56s19.56-8.774,19.56-19.56s-8.774-19.56-19.56-19.56  S290.572,325.937,290.572,336.723z M314.691,336.723c0,2.514-2.046,4.56-4.56,4.56s-4.56-2.045-4.56-4.56  c0-2.515,2.046-4.56,4.56-4.56S314.691,334.208,314.691,336.723z"/>
<path d="M221.427,336.723c0-10.786-8.774-19.56-19.56-19.56c-10.786,0-19.56,8.774-19.56,19.56c0,10.785,8.774,19.56,19.56,19.56  C212.653,356.283,221.427,347.508,221.427,336.723z M197.308,336.723c0-2.515,2.046-4.56,4.56-4.56c2.514,0,4.56,2.045,4.56,4.56  c0,2.514-2.046,4.56-4.56,4.56C199.354,341.283,197.308,339.237,197.308,336.723z"/>
<path d="M280.446,312.277c3.813,3.813,8.821,5.719,13.83,5.719c5.01,0,10.019-1.907,13.831-5.719c0.001,0,0.001,0,0.001,0  c7.625-7.627,7.625-20.036-0.001-27.662c-7.625-7.625-20.035-7.625-27.662,0C272.82,292.24,272.82,304.649,280.446,312.277z   M291.052,295.221c0.89-0.889,2.058-1.333,3.226-1.333c1.167,0,2.335,0.444,3.224,1.333c1.777,1.778,1.777,4.67,0,6.449  c-1.775,1.778-4.669,1.779-6.448,0C289.275,299.891,289.274,296.998,291.052,295.221z"/>
<path d="M231.553,361.168c-7.625-7.625-20.035-7.625-27.662,0.001c-7.625,7.626-7.625,20.035,0.001,27.662  c3.813,3.813,8.821,5.719,13.831,5.719c5.009,0,10.018-1.907,13.83-5.719h0.001C239.179,381.204,239.179,368.796,231.553,361.168z   M220.946,378.224c-1.775,1.777-4.669,1.779-6.448,0c-1.778-1.778-1.777-4.671-0.001-6.448c0.89-0.889,2.058-1.333,3.226-1.333  c1.167,0,2.335,0.444,3.224,1.333C222.724,373.553,222.725,376.446,220.946,378.224z"/>
<path d="M280.445,361.169c-7.625,7.626-7.625,20.035,0,27.661h0.001c3.813,3.813,8.821,5.719,13.83,5.719s10.019-1.906,13.832-5.719  c7.625-7.626,7.625-20.035-0.001-27.662C300.482,353.543,288.072,353.543,280.445,361.169z M297.502,378.223  c-1.777,1.778-4.67,1.779-6.449,0c-1.778-1.778-1.777-4.671-0.001-6.448c1.779-1.777,4.672-1.779,6.449-0.001  C299.278,373.553,299.279,376.446,297.502,378.223z"/>
<path d="M203.892,312.277c3.813,3.813,8.821,5.719,13.83,5.719s10.019-1.907,13.832-5.72c7.625-7.626,7.625-20.035-0.001-27.662  c-7.625-7.625-20.035-7.625-27.662,0C196.266,292.24,196.266,304.649,203.892,312.277  C203.891,312.276,203.891,312.277,203.892,312.277z M214.497,295.221c1.779-1.777,4.672-1.778,6.449,0  c1.778,1.778,1.777,4.671,0.001,6.448c-1.779,1.779-4.672,1.778-6.449,0C212.72,299.891,212.721,296.998,214.497,295.221z"/>
<g>
</g>
<g>
</g>
<g>
</g>
<g>
</g>
<g>
</g>
<g>
</g>
<g>
</g>
<g>
</g>
<g>
</g>
<g>
</g>
<g>
</g>
<g>
</g>
<g>
</g>
<g>
</g>
<g>
</g>
</svg>
